<?xml version="1.0" encoding="UTF-8" standalone="no"?>
<svg
        xmlns="http://www.w3.org/2000/svg"
        version="1.1"
        width="420"
        height="362.5">
    <g
            id="g2993"
            transform="matrix(1.25,0,0,-1.25,0,362.5)">
        <path
                d="M 0,290 336,290 336,0 0,0 0,290 z"
                style="fill:#cccccc;fill-opacity:1;fill-rule:nonzero;stroke:none"
                id="path3007" />
        <path
                d="M 0,290 336,290 336,0 0,0 0,290 z"
                style="fill:#ffffff;fill-opacity:1;fill-rule:nonzero;stroke:none"
                id="path3009" />
        <path
                d="m 48,248.43 48,0 -24,-41.57 -24,41.57 z"
                style="fill:#ff0000;fill-opacity:1;fill-rule:nonzero;stroke:none"
                id="path3011" />
        <path
                d="m 72,206.86 24,41.57 24,-41.57 -48,0 z"
                style="fill:#ff0000;fill-opacity:1;fill-rule:nonzero;stroke:none"
                id="path3013" />
        <path
                d="m 72,206.86 48,0 -24,-41.57 -24,41.57 z"
                style="fill:#ff00ff;fill-opacity:1;fill-rule:nonzero;stroke:none"
                id="path3015" />
        <path
                d="m 96,165.29 24,41.57 24,-41.57 -48,0 z"
                style="fill:#ff00ff;fill-opacity:1;fill-rule:nonzero;stroke:none"
                id="path3017" />
        <path
                d="m 96,165.29 48,0 -24,-41.57 -24,41.57 z"
                style="fill:#ff0000;fill-opacity:1;fill-rule:nonzero;stroke:none"
                id="path3019" />
        <path
                d="m 120,123.72 24,41.57 24,-41.57 -48,0 z"
                style="fill:#ff0000;fill-opacity:1;fill-rule:nonzero;stroke:none"
                id="path3021" />
        <path
                d="m 120,123.72 48,0 -24,-41.57 -24,41.57 z"
                style="fill:#ff0000;fill-opacity:1;fill-rule:nonzero;stroke:none"
                id="path3023" />
        <path
                d="m 144,82.15 24,41.57 24,-41.57 -48,0 z"
                style="fill:#ffff00;fill-opacity:1;fill-rule:nonzero;stroke:none"
                id="path3025" />
        <path
                d="m 144,82.15 48,0 -24,-41.57 -24,41.57 z"
                style="fill:#ffff00;fill-opacity:1;fill-rule:nonzero;stroke:none"
                id="path3027" />
        <path
                d="m 168,123.72 48,0 -24,-41.57 -24,41.57 z"
                style="fill:#00ff00;fill-opacity:1;fill-rule:nonzero;stroke:none"
                id="path3029" />
        <path
                d="m 168,123.72 24,41.57 24,-41.57 -48,0 z"
                style="fill:#00ff00;fill-opacity:1;fill-rule:nonzero;stroke:none"
                id="path3031" />
        <path
                d="m 192,165.29 48,0 -24,-41.57 -24,41.57 z"
                style="fill:#00ff00;fill-opacity:1;fill-rule:nonzero;stroke:none"
                id="path3033" />
        <path
                d="m 192,165.29 24,41.57 24,-41.57 -48,0 z"
                style="fill:#00ffff;fill-opacity:1;fill-rule:nonzero;stroke:none"
                id="path3035" />
        <path
                d="m 216,206.86 48,0 -24,-41.57 -24,41.57 z"
                style="fill:#00ffff;fill-opacity:1;fill-rule:nonzero;stroke:none"
                id="path3037" />
        <path
                d="m 216,206.86 24,41.57 24,-41.57 -48,0 z"
                style="fill:#00ff00;fill-opacity:1;fill-rule:nonzero;stroke:none"
                id="path3039" />
        <path
                d="m 240,248.43 48,0 -24,-41.57 -24,41.57 z"
                style="fill:#00ff00;fill-opacity:1;fill-rule:nonzero;stroke:none"
                id="path3041" />
        <path
                d="m 48,165.29 24,41.57 24,-41.57 -48,0 z"
                style="fill:#0000ff;fill-opacity:1;fill-rule:nonzero;stroke:none"
                id="path3043" />
        <path
                d="m 120,206.86 48,0 -24,-41.57 -24,41.57 z"
                style="fill:#0000ff;fill-opacity:1;fill-rule:nonzero;stroke:none"
                id="path3045" />
        <path
                d="m 144,165.29 24,41.57 24,-41.57 -48,0 z"
                style="fill:#0000ff;fill-opacity:1;fill-rule:nonzero;stroke:none"
                id="path3047" />
        <path
                d="m 168,206.86 48,0 -24,-41.57 -24,41.57 z"
                style="fill:#0000ff;fill-opacity:1;fill-rule:nonzero;stroke:none"
                id="path3049" />
        <path
                d="m 240,165.29 24,41.57 24,-41.57 -48,0 z"
                style="fill:#0000ff;fill-opacity:1;fill-rule:nonzero;stroke:none"
                id="path3051" />
    </g>
</svg>