<?xml version="1.0" encoding="UTF-8" standalone="no"?>
<!-- Created with Inkscape (http://www.inkscape.org/) -->

<svg
   xmlns:dc="http://purl.org/dc/elements/1.1/"
   xmlns:cc="http://creativecommons.org/ns#"
   xmlns:rdf="http://www.w3.org/1999/02/22-rdf-syntax-ns#"
   xmlns:svg="http://www.w3.org/2000/svg"
   xmlns="http://www.w3.org/2000/svg"
   xmlns:sodipodi="http://sodipodi.sourceforge.net/DTD/sodipodi-0.dtd"
   xmlns:inkscape="http://www.inkscape.org/namespaces/inkscape"
   id="svg2985"
   version="1.1"
   inkscape:version="0.48.2 r9819"
   width="420"
   height="362.5"
   xml:space="preserve"
   sodipodi:docname="logo.pdf"><metadata
     id="metadata2991"><rdf:RDF><cc:Work
         rdf:about=""><dc:format>image/svg+xml</dc:format><dc:type
           rdf:resource="http://purl.org/dc/dcmitype/StillImage" /><dc:title></dc:title></cc:Work></rdf:RDF></metadata><defs
     id="defs2989"><clipPath
       clipPathUnits="userSpaceOnUse"
       id="clipPath3001"><path
         d="M 0,290 0,0 336,0 336,290 0,290 z"
         id="path3003" /></clipPath></defs><sodipodi:namedview
     pagecolor="#ffffff"
     bordercolor="#666666"
     borderopacity="1"
     objecttolerance="10"
     gridtolerance="10"
     guidetolerance="10"
     inkscape:pageopacity="0"
     inkscape:pageshadow="2"
     inkscape:window-width="1280"
     inkscape:window-height="748"
     id="namedview2987"
     showgrid="false"
     inkscape:zoom="1"
     inkscape:cx="210"
     inkscape:cy="151.40202"
     inkscape:window-x="-8"
     inkscape:window-y="-8"
     inkscape:window-maximized="1"
     inkscape:current-layer="g2993" /><g
     id="g2993"
     inkscape:groupmode="layer"
     inkscape:label="logo"
     transform="matrix(1.25,0,0,-1.25,0,362.5)"><g
       id="g2995" /><g
       id="g2997"><g
         id="g2999"
         clip-path="url(#clipPath3001)"><g
           id="g3005"><path
             d="M 0,290 336,290 336,0 0,0 0,290 z"
             style="fill:#cccccc;fill-opacity:1;fill-rule:nonzero;stroke:none"
             id="path3007" /><path
             d="M 0,290 336,290 336,0 0,0 0,290 z"
             style="fill:#ffffff;fill-opacity:1;fill-rule:nonzero;stroke:none"
             id="path3009" /><path
             d="m 48,248.43 48,0 -24,-41.57 -24,41.57 z"
             style="fill:#ff0000;fill-opacity:1;fill-rule:nonzero;stroke:none"
             id="path3011" /><path
             d="m 72,206.86 24,41.57 24,-41.57 -48,0 z"
             style="fill:#ff0000;fill-opacity:1;fill-rule:nonzero;stroke:none"
             id="path3013" /><path
             d="m 72,206.86 48,0 -24,-41.57 -24,41.57 z"
             style="fill:#ff00ff;fill-opacity:1;fill-rule:nonzero;stroke:none"
             id="path3015" /><path
             d="m 96,165.29 24,41.57 24,-41.57 -48,0 z"
             style="fill:#ff00ff;fill-opacity:1;fill-rule:nonzero;stroke:none"
             id="path3017" /><path
             d="m 96,165.29 48,0 -24,-41.57 -24,41.57 z"
             style="fill:#ff0000;fill-opacity:1;fill-rule:nonzero;stroke:none"
             id="path3019" /><path
             d="m 120,123.72 24,41.57 24,-41.57 -48,0 z"
             style="fill:#ff0000;fill-opacity:1;fill-rule:nonzero;stroke:none"
             id="path3021" /><path
             d="m 120,123.72 48,0 -24,-41.57 -24,41.57 z"
             style="fill:#ff0000;fill-opacity:1;fill-rule:nonzero;stroke:none"
             id="path3023" /><path
             d="m 144,82.15 24,41.57 24,-41.57 -48,0 z"
             style="fill:#ffff00;fill-opacity:1;fill-rule:nonzero;stroke:none"
             id="path3025" /><path
             d="m 144,82.15 48,0 -24,-41.57 -24,41.57 z"
             style="fill:#ffff00;fill-opacity:1;fill-rule:nonzero;stroke:none"
             id="path3027" /><path
             d="m 168,123.72 48,0 -24,-41.57 -24,41.57 z"
             style="fill:#00ff00;fill-opacity:1;fill-rule:nonzero;stroke:none"
             id="path3029" /><path
             d="m 168,123.72 24,41.57 24,-41.57 -48,0 z"
             style="fill:#00ff00;fill-opacity:1;fill-rule:nonzero;stroke:none"
             id="path3031" /><path
             d="m 192,165.29 48,0 -24,-41.57 -24,41.57 z"
             style="fill:#00ff00;fill-opacity:1;fill-rule:nonzero;stroke:none"
             id="path3033" /><path
             d="m 192,165.29 24,41.57 24,-41.57 -48,0 z"
             style="fill:#00ffff;fill-opacity:1;fill-rule:nonzero;stroke:none"
             id="path3035" /><path
             d="m 216,206.86 48,0 -24,-41.57 -24,41.57 z"
             style="fill:#00ffff;fill-opacity:1;fill-rule:nonzero;stroke:none"
             id="path3037" /><path
             d="m 216,206.86 24,41.57 24,-41.57 -48,0 z"
             style="fill:#00ff00;fill-opacity:1;fill-rule:nonzero;stroke:none"
             id="path3039" /><path
             d="m 240,248.43 48,0 -24,-41.57 -24,41.57 z"
             style="fill:#00ff00;fill-opacity:1;fill-rule:nonzero;stroke:none"
             id="path3041" /><path
             d="m 48,165.29 24,41.57 24,-41.57 -48,0 z"
             style="fill:#0000ff;fill-opacity:1;fill-rule:nonzero;stroke:none"
             id="path3043" /><path
             d="m 120,206.86 48,0 -24,-41.57 -24,41.57 z"
             style="fill:#0000ff;fill-opacity:1;fill-rule:nonzero;stroke:none"
             id="path3045" /><path
             d="m 144,165.29 24,41.57 24,-41.57 -48,0 z"
             style="fill:#0000ff;fill-opacity:1;fill-rule:nonzero;stroke:none"
             id="path3047" /><path
             d="m 168,206.86 48,0 -24,-41.57 -24,41.57 z"
             style="fill:#0000ff;fill-opacity:1;fill-rule:nonzero;stroke:none"
             id="path3049" /><path
             d="m 240,165.29 24,41.57 24,-41.57 -48,0 z"
             style="fill:#0000ff;fill-opacity:1;fill-rule:nonzero;stroke:none"
             id="path3051" /></g></g></g></g></svg>