<svg class="logo" xmlns="http://www.w3.org/2000/svg" viewBox="0 0 64 64">
    <path fill="#f00" d="M2.38,6.09h12l-6,10.39Z"/>
    <path fill="#f00" d="M8.38,16.48l6-10.39,6,10.39Z"/>
    <path fill="#f0f" d="M8.38,16.48h12l-6,10.4-6-10.4Z"/>
    <path fill="#f0f" d="M14.38,26.88l6-10.4,6,10.4Z"/>
    <path fill="#f00" d="M14.38,26.88h12l-6,10.39Z"/>
    <path fill="#f00" d="M20.38,37.27l6-10.39,6,10.39Z"/>
    <path fill="#f00" d="M20.38,37.27h12l-6,10.39Z"/>
    <path fill="#ff0" d="M26.38,47.66l6-10.39,6,10.39Z"/>
    <path fill="#ff0" d="M26.38,47.66h12l-6,10.39Z"/>
    <path fill="#0f0" d="M32.38,37.27h12l-6,10.39Z"/>
    <path fill="#0f0" d="M32.38,37.27l6-10.39,6,10.39Z"/>
    <path fill="#0f0" d="M38.38,26.88h12l-6,10.39Z"/>
    <path fill="#0ff" d="M38.38,26.88l6-10.4,6,10.4Z"/>
    <path fill="#0ff" d="M44.38,16.48h12l-6,10.4-6-10.4Z"/>
    <path fill="#0f0" d="M44.38,16.48l6-10.39,6,10.39Z"/>
    <path fill="#0f0" d="M50.38,6.09h12l-6,10.39Z"/>
    <path fill="#00f" d="M2.38,26.88l6-10.4,6,10.4Z"/>
    <path fill="#00f" d="M20.38,16.48h12l-6,10.4-6-10.4Z"/>
    <path fill="#00f" d="M26.38,26.88l6-10.4,6,10.4Z"/>
    <path fill="#00f" d="M32.38,16.48h12l-6,10.4-6-10.4Z"/>
    <path fill="#00f" d="M50.38,26.88l6-10.4,6,10.4Z"/>
</svg>